<svg width="60" height="65" viewBox="0 0 60 65" fill="none" xmlns="http://www.w3.org/2000/svg">
<path d="M34 4C34 1.79086 32.2091 0 30 0C27.7909 0 26 1.79086 26 4L34 4ZM27.1716 63.8284C28.7337 65.3905 31.2663 65.3905 32.8284 63.8284L58.2843 38.3726C59.8464 36.8105 59.8464 34.2778 58.2843 32.7157C56.7222 31.1536 54.1895 31.1536 52.6274 32.7157L30 55.3431L7.37258 32.7157C5.81049 31.1536 3.27783 31.1536 1.71573 32.7157C0.153631 34.2778 0.153631 36.8105 1.71573 38.3726L27.1716 63.8284ZM26 4L26 61H34V4L26 4Z" fill="white"/>
</svg>
